<svg width="11" height="11" viewBox="0 0 11 11" fill="none" xmlns="http://www.w3.org/2000/svg">
<path d="M2.21116 10.7801C2.21116 10.6587 2.18782 10.5981 2.14116 10.5981L1.81916 10.7521C1.81916 10.6867 1.78182 10.6401 1.70716 10.6121L1.59516 10.5981C1.52049 10.5981 1.42716 10.6307 1.31516 10.6961C1.29649 10.6494 1.27316 10.6027 1.24516 10.5561C1.21716 10.5094 1.19382 10.4674 1.17516 10.4301C1.05382 10.1967 0.93249 9.94006 0.811156 9.66006C0.699156 9.37073 0.591823 9.0954 0.489156 8.83406C0.395823 8.57273 0.321156 8.3674 0.265156 8.21806C0.227823 8.09673 0.185823 7.91473 0.139156 7.67206C0.0924896 7.4294 0.0458229 7.1214 -0.000843711 6.74806C0.101823 6.8134 0.181156 6.84606 0.237156 6.84606C0.30249 6.84606 0.363156 6.74806 0.419156 6.55206C0.447156 6.5894 0.49849 6.60806 0.573156 6.60806C0.629156 6.60806 0.671156 6.5894 0.699156 6.55206L0.923156 6.21606L1.17516 6.30006H1.18916C1.20782 6.30006 1.22649 6.29073 1.24516 6.27206C1.26382 6.2534 1.29182 6.23473 1.32916 6.21606C1.40382 6.1694 1.45982 6.14606 1.49716 6.14606L1.53916 6.16006C1.77249 6.27206 1.92182 6.4774 1.98716 6.77606C2.15516 7.4854 2.32316 7.84006 2.49116 7.84006C2.65916 7.84006 2.85516 7.66273 3.07916 7.30806C3.19116 7.13073 3.30316 6.9254 3.41516 6.69206C3.53649 6.45873 3.65782 6.1974 3.77916 5.90806C3.79782 6.02006 3.81649 6.07606 3.83516 6.07606C3.88182 6.07606 3.96116 5.9594 4.07316 5.72606C4.19449 5.49273 4.38582 5.17073 4.64716 4.76006C4.79649 4.50806 4.98316 4.2234 5.20716 3.90606C5.44049 3.58873 5.68782 3.26206 5.94916 2.92606C6.21049 2.59006 6.46249 2.27273 6.70516 1.97406C6.95716 1.6754 7.18116 1.41873 7.37716 1.20406C7.57316 0.989395 7.71782 0.849395 7.81116 0.784062C8.16582 0.541395 8.44582 0.308062 8.65116 0.0840621C8.64182 0.149395 8.62782 0.210062 8.60916 0.266062C8.59982 0.312729 8.59516 0.345395 8.59516 0.364062C8.59516 0.401395 8.61382 0.420062 8.65116 0.420062L9.04316 0.224062V0.280062C9.04316 0.354729 9.06182 0.392062 9.09916 0.392062C9.12716 0.392062 9.18316 0.350062 9.26716 0.266062C9.35116 0.182062 9.39782 0.121396 9.40716 0.0840621L9.37916 0.280062L9.85516 6.23465e-05L9.74316 0.252062C9.89249 0.149395 9.99982 0.0980619 10.0652 0.0980619C10.1025 0.0980619 10.1305 0.121395 10.1492 0.168062C10.1678 0.205395 10.1772 0.242729 10.1772 0.280062C10.1772 0.336062 10.1538 0.401395 10.1072 0.476062C10.0605 0.550729 9.99982 0.639396 9.92516 0.742062C9.86916 0.816729 9.77582 0.928729 9.64516 1.07806C9.52382 1.21806 9.33716 1.42806 9.08516 1.70806C8.83316 1.97873 8.49716 2.35673 8.07716 2.84206C7.96516 2.9634 7.79249 3.17806 7.55916 3.48606C7.32582 3.78473 7.05982 4.13473 6.76116 4.53606C6.47182 4.92806 6.18249 5.32473 5.89316 5.72606C5.60382 6.1274 5.34716 6.4914 5.12316 6.81806C4.89916 7.1354 4.74049 7.3734 4.64716 7.53206L3.77916 9.00206C3.59249 9.3194 3.43849 9.58073 3.31716 9.78606C3.19582 9.98206 3.10249 10.1174 3.03716 10.1921C2.89716 10.3601 2.74316 10.5094 2.57516 10.6401L2.44916 10.5701L2.33716 10.6401L2.21116 10.7801Z" fill="white"/>
</svg>
