<svg width="13" height="13" viewBox="0 0 13 13" fill="none" xmlns="http://www.w3.org/2000/svg">
<g clip-path="url(#clip0_1400_20507)">
<path d="M8.91972 0.775391L9.53757 1.93894L10.859 2.09951L9.88935 2.97334L10.0833 4.26604L8.91972 3.53883L7.75617 4.26604L7.95009 2.97334L6.98047 2.09951L8.33795 1.93894L8.91972 0.775391Z" fill="#009387"/>
<path d="M8.81221 5.1389L8.06056 4.94575C7.92583 5.46478 7.64028 5.93224 7.23999 6.28907C6.8397 6.64589 6.34264 6.87607 5.81159 6.95052C5.28055 7.02498 4.73935 6.94037 4.25637 6.70738C3.77339 6.47439 3.3703 6.10349 3.09802 5.64151C2.82575 5.17954 2.6965 4.64724 2.72661 4.11184C2.75672 3.57645 2.94485 3.06199 3.26721 2.63347C3.58957 2.20494 4.03171 1.88157 4.53777 1.70421C5.04383 1.52685 5.5911 1.50346 6.11045 1.637L6.30399 0.885729C5.5469 0.688799 4.74557 0.752185 4.02886 1.0657C3.31215 1.37921 2.72168 1.92463 2.3524 2.61427C1.98312 3.3039 1.85648 4.09769 1.99284 4.868C2.1292 5.63831 2.52064 6.34038 3.10422 6.86134V11.6358L5.43132 10.0844L7.75843 11.6358V6.86832C8.2736 6.40925 8.64044 5.80721 8.81221 5.1389ZM6.98273 10.1864L5.43132 9.15199L3.87992 10.1864V7.38882C4.36122 7.63074 4.89237 7.75693 5.43105 7.75733C5.96973 7.75774 6.50106 7.63234 6.98273 7.39114V10.1864Z" fill="#009387"/>
</g>
<defs>
<clipPath id="clip0_1400_20507">
<rect width="12.4112" height="12.4112" fill="white"/>
</clipPath>
</defs>
</svg>
