<svg width="40" height="40" viewBox="0 0 40 40" fill="none" xmlns="http://www.w3.org/2000/svg">
<path d="M14 16C14 14.4087 14.6321 12.8826 15.7574 11.7574C16.8826 10.6321 18.4087 10 20 10C21.5913 10 23.1174 10.6321 24.2426 11.7574C25.3679 12.8826 26 14.4087 26 16C26 23 29 25 29 25H11C11 25 14 23 14 16Z" stroke="#344256" stroke-width="1.33333" stroke-linecap="round" stroke-linejoin="round"/>
<path d="M18.3008 29C18.4682 29.3044 18.7142 29.5583 19.0133 29.7352C19.3123 29.912 19.6534 30.0053 20.0008 30.0053C20.3482 30.0053 20.6892 29.912 20.9883 29.7352C21.2873 29.5583 21.5334 29.3044 21.7008 29" stroke="#344256" stroke-width="1.33333" stroke-linecap="round" stroke-linejoin="round"/>
<rect x="22" y="6" width="8" height="8" rx="4" fill="#EF4444"/>
</svg>
