<svg width="48" height="48" viewBox="0 0 48 48" fill="none" xmlns="http://www.w3.org/2000/svg">
<path d="M7.99901 27.9993C7.62054 28.0006 7.24947 27.8945 6.92891 27.6933C6.60836 27.4921 6.35148 27.2041 6.18811 26.8627C6.02474 26.5213 5.96159 26.1405 6.00601 25.7647C6.05042 25.3888 6.20057 25.0333 6.43901 24.7393L26.239 4.33935C26.3875 4.16791 26.5899 4.05206 26.813 4.01081C27.036 3.96957 27.2665 4.00537 27.4665 4.11236C27.6665 4.21934 27.8242 4.39114 27.9137 4.59957C28.0032 4.80799 28.0192 5.04065 27.959 5.25935L24.119 17.2993C24.0058 17.6024 23.9678 17.9284 24.0082 18.2494C24.0486 18.5703 24.1663 18.8767 24.3512 19.1422C24.536 19.4077 24.7826 19.6244 25.0696 19.7737C25.3566 19.923 25.6755 20.0004 25.999 19.9993H39.999C40.3775 19.9981 40.7485 20.1042 41.0691 20.3054C41.3897 20.5066 41.6465 20.7946 41.8099 21.136C41.9733 21.4774 42.0364 21.8582 41.992 22.234C41.9476 22.6099 41.7974 22.9654 41.559 23.2593L21.759 43.6593C21.6105 43.8308 21.4081 43.9466 21.185 43.9879C20.962 44.0291 20.7316 43.9933 20.5315 43.8863C20.3315 43.7794 20.1738 43.6076 20.0843 43.3991C19.9948 43.1907 19.9789 42.9581 20.039 42.7393L23.879 30.6994C23.9922 30.3963 24.0303 30.0703 23.9898 29.7493C23.9494 29.4284 23.8317 29.122 23.6468 28.8565C23.462 28.591 23.2155 28.3743 22.9285 28.225C22.6415 28.0757 22.3225 27.9983 21.999 27.9993H7.99901Z" stroke="#00C4B4" stroke-width="4" stroke-linecap="round" stroke-linejoin="round"/>
</svg>
